<?xml version="1.0" standalone="no"?>
<!DOCTYPE svg PUBLIC "-//W3C//DTD SVG 20010904//EN"
 "http://www.w3.org/TR/2001/REC-SVG-20010904/DTD/svg10.dtd">
<svg version="1.0" xmlns="http://www.w3.org/2000/svg"
 width="500.000000pt" height="500.000000pt" viewBox="0 0 500.000000 500.000000"
 preserveAspectRatio="xMidYMid meet">
<metadata>
Created by potrace 1.11, written by Peter Selinger 2001-2013
</metadata>
<g transform="translate(0.000000,500.000000) scale(0.100000,-0.100000)"
fill="#000000" stroke="none">
<path d="M0 2500 l0 -2500 2500 0 2500 0 0 2500 0 2500 -2500 0 -2500 0 0
-2500z m4990 0 l0 -2490 -2490 0 -2490 0 0 2490 0 2490 2490 0 2490 0 0 -2490z"/>
<path d="M1533 4074 c-57 -21 -128 -86 -161 -148 -23 -43 -27 -63 -26 -131 0
-66 5 -89 26 -131 32 -62 84 -109 156 -142 45 -20 65 -24 130 -20 173 8 292
127 292 294 0 123 -65 221 -181 274 -54 24 -173 26 -236 4z"/>
<path d="M2410 2730 l0 -1260 235 0 235 0 0 559 0 559 43 42 c54 56 144 114
210 137 78 27 256 25 318 -3 59 -28 114 -76 145 -129 49 -85 54 -139 54 -672
l0 -493 236 0 235 0 -4 538 c-4 570 -5 578 -56 725 -79 226 -273 405 -509 469
-102 27 -298 30 -392 5 -69 -19 -193 -74 -240 -107 -15 -11 -31 -20 -34 -20
-3 0 -6 205 -6 455 l0 455 -235 0 -235 0 0 -1260z"/>
<path d="M1410 2228 c0 -1050 0 -1052 -57 -1126 -52 -68 -178 -100 -308 -78
l-41 7 -34 -210 c-19 -116 -32 -212 -29 -215 13 -13 196 -28 289 -23 201 11
355 72 467 183 71 72 120 165 155 294 l22 85 3 1023 4 1022 -236 0 -235 0 0
-962z"/>
</g>
</svg>
